<svg width="112" height="98" viewBox="0 0 112 98" fill="none" xmlns="http://www.w3.org/2000/svg">
<rect x="78.5176" y="85.207" width="15.4691" height="3.81705" rx="1.90853" fill="#D4D4D6"/>
<rect x="19.6546" y="85.207" width="15.4691" height="3.81705" rx="1.90853" fill="#D4D4D6"/>
<path fill-rule="evenodd" clip-rule="evenodd" d="M88.1607 57.9247H94.7903C98.6736 57.9247 101.822 61.0728 101.822 64.9561V75.8046C101.822 79.6879 98.6736 82.836 94.7903 82.836H18.851C14.9677 82.836 11.8196 79.6879 11.8196 75.8046V64.9561C11.8196 61.0728 14.9677 57.9247 18.851 57.9247H84.3436V51.1947C84.3436 50.1406 85.1981 49.2861 86.2521 49.2861C87.3062 49.2861 88.1607 50.1406 88.1607 51.1947V57.9247ZM21.5631 69.142C20.5091 69.142 19.6546 69.9964 19.6546 71.0505C19.6546 72.1045 20.5091 72.959 21.5631 72.959C22.6172 72.959 23.4717 72.1045 23.4717 71.0505C23.4717 69.9964 22.6172 69.142 21.5631 69.142ZM29.2977 71.0505C29.2977 69.9964 30.1522 69.142 31.2062 69.142C32.2603 69.142 33.1147 69.9964 33.1147 71.0505C33.1147 72.1045 32.2603 72.959 31.2062 72.959C30.1522 72.959 29.2977 72.1045 29.2977 71.0505ZM85.3481 66.9023C85.3481 66.3475 85.7978 65.8978 86.3526 65.8978C86.9074 65.8978 87.3571 66.3475 87.3571 66.9023V74.7373C87.3571 75.292 86.9074 75.7418 86.3526 75.7418C85.7978 75.7418 85.3481 75.292 85.3481 74.7373V66.9023ZM81.3302 68.5094C81.3302 67.9547 81.7799 67.505 82.3346 67.505C82.8894 67.505 83.3391 67.9547 83.3391 68.5094V73.331C83.3391 73.8857 82.8894 74.3355 82.3346 74.3355C81.7799 74.3355 81.3302 73.8857 81.3302 73.331V68.5094ZM90.3705 67.505C89.8158 67.505 89.3661 67.9547 89.3661 68.5094V73.331C89.3661 73.8857 89.8158 74.3355 90.3705 74.3355C90.9253 74.3355 91.375 73.8857 91.375 73.331V68.5094C91.375 67.9547 90.9253 67.505 90.3705 67.505Z" fill="#D4D4D6"/>
<path d="M25.8167 38.4521C26.3659 39.0013 27.2563 39.0013 27.8055 38.4521C28.3547 37.9029 28.3547 37.0125 27.8055 36.4633L20.5429 29.2007L27.7902 21.9534C28.3394 21.4042 28.3394 20.5138 27.7902 19.9646C27.241 19.4154 26.3506 19.4154 25.8014 19.9646L18.5541 27.2119L11.327 19.9848C10.7778 19.4356 9.88743 19.4356 9.33824 19.9848C8.78905 20.534 8.78905 21.4244 9.33824 21.9736L16.5654 29.2007L9.32295 36.4431C8.77376 36.9923 8.77376 37.8827 9.32295 38.4319C9.87213 38.9811 10.7625 38.9811 11.3117 38.4319L18.5541 31.1895L25.8167 38.4521Z" fill="#ED1F29"/>
<rect x="39.2478" y="27.2998" width="3.81705" height="3.81705" rx="1.90853" fill="#D4D4D6"/>
<rect x="46.3091" y="27.2998" width="3.81705" height="3.81705" rx="1.90853" fill="#2D2D2D"/>
<rect x="53.3703" y="27.2998" width="3.81705" height="3.81705" rx="1.90853" fill="#D4D4D6"/>
<path d="M69.7349 17.256C69.0721 18.0833 69.4572 19.2736 70.4353 19.6824C71.2206 20.0106 72.1191 19.7099 72.6426 19.0389C73.9397 17.3763 75.6648 15.9623 77.7029 14.9011C80.2207 13.5902 83.1221 12.8667 86.0985 12.8076C89.0749 12.7485 92.0151 13.3559 94.6065 14.5654C96.7175 15.5506 98.5327 16.9054 99.9288 18.5281C100.475 19.1628 101.371 19.4155 102.129 19.0598C103.087 18.6105 103.414 17.404 102.712 16.6121C101.033 14.717 98.879 13.1318 96.3871 11.9687C93.2269 10.4938 89.6412 9.75301 86.0115 9.82512C82.3817 9.89722 78.8434 10.7795 75.7729 12.3782C73.3565 13.6364 71.3008 15.3013 69.7349 17.256Z" fill="#2D2D2D"/>
<path d="M74.4274 24.964C73.6738 24.5924 73.3671 23.6687 73.8311 22.9682C75.0167 21.178 76.5924 19.6554 78.4535 18.5122C80.7563 17.0976 83.41 16.3169 86.1324 16.2531C88.8547 16.1893 91.5439 16.8448 93.9141 18.1499C95.8298 19.2048 97.4793 20.6522 98.7521 22.3852C99.2495 23.0623 98.9876 23.9998 98.2526 24.4067C97.5412 24.8004 96.653 24.547 96.1586 23.9016C95.1609 22.599 93.8925 21.5079 92.4302 20.7028C90.5341 19.6587 88.3828 19.1343 86.2049 19.1853C84.027 19.2364 81.9041 19.8609 80.0618 20.9926C78.6426 21.8644 77.4308 23.012 76.499 24.3579C76.0352 25.0278 75.1582 25.3243 74.4274 24.964Z" fill="#2D2D2D"/>
<path d="M78.8043 26.8426C78.3505 27.4798 78.6377 28.34 79.3355 28.6935C80.0333 29.047 80.8752 28.7547 81.369 28.1481C81.8381 27.5717 82.4032 27.076 83.0427 26.6843C84.0869 26.0446 85.2884 25.7077 86.513 25.711C87.7376 25.7143 88.9373 26.0578 89.978 26.7031C90.6154 27.0983 91.1778 27.5971 91.6438 28.176C92.1342 28.7854 92.9745 29.0822 93.6742 28.7325C94.3739 28.3829 94.6658 27.5242 94.2155 26.8846C93.4868 25.8497 92.5546 24.9678 91.4708 24.2957C89.9839 23.3738 88.2702 22.8831 86.5207 22.8783C84.7713 22.8736 83.0549 23.355 81.5631 24.2687C80.4756 24.9349 79.5386 25.8117 78.8043 26.8426Z" fill="#2D2D2D"/>
<path d="M86.495 30.9147C85.2746 30.9147 84.2852 31.9041 84.2852 33.1245C84.2852 34.345 85.2746 35.3344 86.495 35.3344C87.7155 35.3344 88.7049 34.345 88.7049 33.1245C88.7049 31.9041 87.7155 30.9147 86.495 30.9147Z" fill="#2D2D2D"/>
</svg>
